<svg id="computer_access" data-name="computer access" xmlns="http://www.w3.org/2000/svg" viewBox="0 0 65 65"><defs><style>.cls-1{fill:#434b58;}</style></defs><title>footer-get-support</title><path class="cls-1" d="M32.83,22.6a3.81,3.81,0,0,0,2.58-.84,3,3,0,0,0,1-2.34,3,3,0,0,0-1-2.33,3.81,3.81,0,0,0-2.58-.84,3.85,3.85,0,0,0-2.53.83,2.9,2.9,0,0,0-1.06,2.34,2.9,2.9,0,0,0,1.06,2.34A3.84,3.84,0,0,0,32.83,22.6Z"/><polygon class="cls-1" points="35.64 44.88 35.64 25.45 27.11 25.45 27.11 28.7 30.14 28.7 30.14 44.88 27.11 44.88 27.11 48.13 38.67 48.13 38.67 44.88 35.64 44.88"/><path class="cls-1" d="M32.81,63.67A30.75,30.75,0,1,1,63.57,32.91,30.79,30.79,0,0,1,32.81,63.67Zm0-60A29.25,29.25,0,1,0,62.07,32.91,29.29,29.29,0,0,0,32.81,3.66Z"/></svg>