<svg id="computer_access" data-name="computer access" xmlns="http://www.w3.org/2000/svg" viewBox="0 0 65 65"><defs><style>.cls-1{fill:#434b58;}</style></defs><title>footer-livechat</title><circle class="cls-1" cx="28.2" cy="37.59" r="3.07"/><circle class="cls-1" cx="38.95" cy="37.59" r="3.07"/><circle class="cls-1" cx="49.7" cy="37.59" r="3.07"/><path class="cls-1" d="M62.27,60.25A0.74,0.74,0,0,1,61.73,60l-6.81-7-39.46.08h0a0.74,0.74,0,0,1-.74-0.75l0.17-29.77a0.74,0.74,0,0,1,.74-0.74l46.72-.17h0a0.74,0.74,0,0,1,.74.75L63,59.51A0.74,0.74,0,0,1,62.27,60.25Zm-7-8.77a0.74,0.74,0,0,1,.53.23l5.75,6L61.6,23.12l-45.24.16L16.21,51.57l39-.08h0Z"/><path class="cls-1" d="M0.83,46.94a0.74,0.74,0,0,1-.74-0.74L0,7.08A0.74,0.74,0,0,1,.74,6.33h0L47.47,6.5a0.74,0.74,0,0,1,.74.74l0.08,15.22a0.74,0.74,0,0,1-.74.75h0a0.74,0.74,0,0,1-.74-0.74L46.73,8,1.49,7.83,1.57,44.36l5.75-6a0.74,0.74,0,0,1,.54-0.23h0l7.69,0a0.74,0.74,0,0,1,0,1.49h0l-7.37,0-6.81,7A0.74,0.74,0,0,1,.83,46.94Z"/></svg>